<?xml version="1.0" encoding="UTF-8"?>
<svg width="301px" height="301px" viewBox="0 0 301 301" version="1.1"
    xmlns="http://www.w3.org/2000/svg" xmlns:xlink="http://www.w3.org/1999/xlink">
    <title>灰</title>
    <defs>
        <linearGradient x1="50.0940999%" y1="8.77995446e-05%" x2="50.0940999%" y2="99.905169%"
            id="linearGradient-1">
            <stop stop-color="#4EFFFF" offset="0%"></stop>
            <stop stop-color="#50F1FF" offset="16%"></stop>
            <stop stop-color="#54CBFF" offset="47%"></stop>
            <stop stop-color="#5C8FFF" offset="89%"></stop>
            <stop stop-color="#5E7EFF" offset="100%"></stop>
        </linearGradient>
        <linearGradient x1="50.0462887%" y1="0%" x2="50.0462887%" y2="100%" id="linearGradient-2">
            <stop stop-color="#4EFFFF" offset="0%"></stop>
            <stop stop-color="#50F1FF" offset="16%"></stop>
            <stop stop-color="#54CBFF" offset="47%"></stop>
            <stop stop-color="#5C8FFF" offset="89%"></stop>
            <stop stop-color="#5E7EFF" offset="100%"></stop>
        </linearGradient>
        <linearGradient x1="50.0262467%" y1="-0.0440519113%" x2="50.0262467%" y2="100.045997%"
            id="linearGradient-3">
            <stop stop-color="#4EFFFF" offset="0%"></stop>
            <stop stop-color="#50F1FF" offset="16%"></stop>
            <stop stop-color="#54CBFF" offset="47%"></stop>
            <stop stop-color="#5C8FFF" offset="89%"></stop>
            <stop stop-color="#5E7EFF" offset="100%"></stop>
        </linearGradient>
        <linearGradient x1="49.5309568%" y1="0%" x2="49.5309568%" y2="100%" id="linearGradient-4">
            <stop stop-color="#4EFFFF" offset="0%"></stop>
            <stop stop-color="#50F1FF" offset="16%"></stop>
            <stop stop-color="#54CBFF" offset="47%"></stop>
            <stop stop-color="#5C8FFF" offset="89%"></stop>
            <stop stop-color="#5E7EFF" offset="100%"></stop>
        </linearGradient>
    </defs>
    <g id="最新需求" stroke="none" stroke-width="1" fill="none" fill-rule="evenodd">
        <g id="灰" transform="translate(0.350000, 0.690000)" fill-rule="nonzero">
            <rect id="矩形" fill="#195DE9" x="0" y="0" width="300" height="300" rx="150"></rect>
            <path
                d="M66.85,183.98 C66.8140586,183.959279 66.7913693,183.921464 66.79,183.88 C66.7892308,183.837935 66.8125222,183.799116 66.85,183.78 L69.37,181.56 C70.1588736,181.083588 70.6435907,180.231547 70.65,179.31 L70.65,178.42 C70.6444984,177.413226 69.8267887,176.599985 68.82,176.6 L62.42,176.6 C62.3779354,176.600769 62.3391164,176.577478 62.32,176.54 C62.298022,176.506627 62.298022,176.463373 62.32,176.43 L63.55,174.43 L59.9,174.43 L60.72,173.02 L57.02,173.02 L54.93,176.48 L58.65,176.48 C57.55,178.37 56.04,180.94 56.01,180.97 L55.77,181.38 L59.55,181.38 L58.33,183.21 L59.53,183.86 L54.86,186.62 L56.61,189.62 L62.99,185.94 C63.0240341,185.92035 63.0659659,185.92035 63.1,185.94 L69.65,189.72 L71.45,186.6 L66.85,183.98 Z M61.78,178.59 L66.91,178.59 L66.91,178.59 C66.967424,178.583847 67.0198282,178.62315 67.03,178.68 C67.03,178.68 67.03,178.77 66.94,178.83 L63.23,181.83 C63.1923926,181.849566 63.1476074,181.849566 63.11,181.83 L61.21,180.76 C60.8762675,180.54022 60.4437325,180.54022 60.11,180.76 L61.35,178.86 C61.4366668,178.701384 61.5994827,178.599151 61.78,178.59 L61.78,178.59 Z"
                id="形状" fill="#FFFFFF"></path>
            <path
                d="M71.35,170.37 L65.44,170.37 C65.3737258,170.37 65.32,170.316274 65.32,170.25 L65.32,168.25 C65.3198716,168.219008 65.3328232,168.1894 65.3556693,168.168457 C65.3785155,168.147515 65.4091361,168.137182 65.44,168.14 L70.7,168.14 L70.7,166.14 L65.44,166.14 C65.3737258,166.14 65.32,166.086274 65.32,166.02 L65.32,164.16 L61.71,164.16 L61.71,166.02 C61.7102176,166.082558 61.6623404,166.134787 61.6,166.14 L56.33,166.14 L56.33,168.14 L61.65,168.14 C61.7107513,168.14 61.76,168.189249 61.76,168.25 L61.76,170.25 C61.7628177,170.280864 61.7524848,170.311485 61.7315425,170.334331 C61.7106003,170.357177 61.680992,170.370128 61.65,170.37 L55.65,170.37 L55.65,172.37 L71.35,172.37 L71.35,170.37 Z"
                id="路径" fill="#FFFFFF"></path>
            <path
                d="M66.89,174.48 C66.89,175.496204 67.7137961,176.32 68.73,176.32 C69.7462039,176.32 70.57,175.496204 70.57,174.48 C70.57,173.463796 69.7462039,172.64 68.73,172.64 C67.7137961,172.64 66.89,173.463796 66.89,174.48 Z"
                id="路径" fill="#FFFFFF"></path>
            <path
                d="M51.79,166.83 L51.79,164.19 L48.18,164.19 L48.18,166.83 C48.18,166.896274 48.1262742,166.95 48.06,166.95 L44.36,166.95 L44.36,168.95 L48.06,168.95 C48.0908639,168.947182 48.1214845,168.957515 48.1443307,168.978457 C48.1671768,168.9994 48.1801284,169.029008 48.18,169.06 L48.18,189.73 L51.79,189.73 L51.79,172.49 L54.45,172.49 L54.45,170.49 L51.79,170.49 L51.79,169.04 C51.79,168.979249 51.8392487,168.93 51.9,168.93 L54.79,168.93 L54.79,166.93 L51.9,166.93 C51.8446149,166.926127 51.7991181,166.884766 51.79,166.83 L51.79,166.83 Z"
                id="路径" fill="#FFFFFF"></path>
            <rect id="矩形" fill="#FFFFFF" x="44.36" y="170.5" width="2.83" height="19.2"></rect>
            <path
                d="M244.25,183.54 L245.1,187.61 C245.112503,187.635201 245.112503,187.664799 245.1,187.69 C245.074799,187.702503 245.045201,187.702503 245.02,187.69 L239.56,187.69 C239.421407,187.692359 239.287824,187.638204 239.19,187.54 C239.098842,187.442426 239.048714,187.313524 239.05,187.18 L239.05,181.96 L235.05,181.96 L235.05,187.08 C235.066381,188.516892 236.233024,189.67463 237.67,189.68 L249.52,189.68 L248.25,183.5 L244.25,183.54 Z"
                id="路径" fill="#FFFFFF"></path>
            <polygon id="路径" fill="#FFFFFF"
                points="254.31 182 250.32 182 251.38 189.72 255.37 189.72"></polygon>
            <polygon id="路径" fill="#FFFFFF"
                points="228.29 189.72 232.28 189.72 233.34 182 229.35 182"></polygon>
            <path
                d="M248.07,180.31 L248.07,178.31 L234.07,178.31 C234.07,178.31 234.01,178.31 234,178.31 C233.990554,178.287623 233.990554,178.262377 234,178.24 L234,176.24 C233.999858,176.211651 234.011755,176.184574 234.032731,176.165505 C234.053708,176.146435 234.081793,176.137165 234.11,176.14 L246.65,176.14 L246.65,174.14 L234.07,174.14 C234.013185,174.134814 233.969764,174.087051 233.97,174.03 L233.97,172.03 C233.97,172.003478 233.980536,171.978043 233.999289,171.959289 C234.018043,171.940536 234.043478,171.93 234.07,171.93 L246.72,171.93 L246.72,169.93 L234.08,169.93 C234.024772,169.93 233.98,169.885228 233.98,169.83 L233.98,167.14 L229.98,167.14 L229.98,180.4 L248.07,180.31 Z"
                id="路径" fill="#FFFFFF"></path>
            <path
                d="M253.84,180.31 L253.84,167.58 C253.84,166.475431 252.944569,165.58 251.84,165.58 L239.49,165.58 L240.09,164.15 L236.09,164.15 L234.65,167.6 L249.77,167.6 C249.80866,167.6 249.84,167.63134 249.84,167.67 L249.84,180.32 L253.84,180.31 Z"
                id="路径" fill="#FFFFFF"></path>
            <path
                d="M111.59,187.64 L111.59,180 C111.595213,179.93766 111.647442,179.889782 111.71,179.89 L114.42,179.89 L114.42,177.89 L111.71,177.89 C111.647442,177.890218 111.595213,177.84234 111.59,177.78 L111.59,173.83 C111.594774,173.765807 111.645807,173.714774 111.71,173.71 L114.42,173.71 L114.42,171.71 L105.28,171.71 L105.28,173.71 L107.88,173.71 C107.946274,173.71 108,173.763726 108,173.83 L108,177.78 C108.000128,177.810992 107.987177,177.8406 107.964331,177.861543 C107.941485,177.882485 107.910864,177.892818 107.88,177.89 L105.28,177.89 L105.28,179.89 L107.88,179.89 C107.910864,179.887182 107.941485,179.897515 107.964331,179.918457 C107.987177,179.9394 108.000128,179.969008 108,180 L108,188.09 C108.005459,188.987953 108.732047,189.714541 109.63,189.72 L114.43,189.72 L114.43,187.72 L111.71,187.72 C111.65566,187.726934 111.6045,187.692827 111.59,187.64 L111.59,187.64 Z"
                id="路径" fill="#FFFFFF"></path>
            <path
                d="M114.42,166.17 L108.99,166.17 C108.92766,166.164787 108.879782,166.112558 108.88,166.05 L108.88,164.85 L105.28,164.85 L105.28,168.15 L114.42,168.15 L114.42,166.17 Z"
                id="路径" fill="#FFFFFF"></path>
            <path
                d="M126.18,165.49 L126.18,164.19 L122.58,164.19 L122.58,165.49 C122.58,165.521826 122.567357,165.552348 122.544853,165.574853 C122.522348,165.597357 122.491826,165.61 122.46,165.61 L115.65,165.61 L115.65,167.61 L133.2,167.61 L133.2,165.61 L126.31,165.61 C126.27648,165.612803 126.243322,165.601409 126.218606,165.578594 C126.193889,165.555779 126.179883,165.523637 126.18,165.49 Z"
                id="路径" fill="#FFFFFF"></path>
            <path
                d="M128.86,187.23 L128.86,183.87 C128.86,183.809249 128.909249,183.76 128.97,183.76 L132.8,183.76 L132.8,177.97 L121.32,177.97 L121.32,179.97 L129.09,179.97 C129.150751,179.97 129.2,180.019249 129.2,180.08 L129.2,181.68 C129.2,181.709174 129.188411,181.737153 129.167782,181.757782 C129.147153,181.778411 129.119174,181.79 129.09,181.79 L119.65,181.79 C119.589249,181.79 119.54,181.740751 119.54,181.68 L119.54,176.61 C119.54,176.580826 119.551589,176.552847 119.572218,176.532218 C119.592847,176.511589 119.620826,176.5 119.65,176.5 L132.79,176.5 L132.79,174.5 L115.95,174.5 L115.95,183.75 L119.5,183.75 C119.536934,183.748757 119.571543,183.767984 119.59,183.8 C119.615015,183.8324 119.615015,183.8776 119.59,183.91 L117.06,189.71 L120.71,189.71 L123.28,183.82 C123.297397,183.775109 123.341966,183.746747 123.39,183.75 L125.13,183.75 C125.160864,183.747182 125.191485,183.757515 125.214331,183.778457 C125.237177,183.7994 125.250128,183.829008 125.25,183.86 L125.25,187.12 C125.255508,188.552034 126.417956,189.71 127.85,189.71 L133.11,189.71 L133.11,187.71 L129.35,187.71 C129.085364,187.704916 128.870539,187.494475 128.86,187.23 Z"
                id="路径" fill="#FFFFFF"></path>
            <path
                d="M131.12,169.1 L127.52,169.1 L127.52,170.81 C127.52,170.839174 127.508411,170.867153 127.487782,170.887782 C127.467153,170.908411 127.439174,170.92 127.41,170.92 L121.08,170.92 C121.050826,170.92 121.022847,170.908411 121.002218,170.887782 C120.981589,170.867153 120.97,170.839174 120.97,170.81 L120.97,169.1 L117.37,169.1 L117.37,170.92 L115.65,170.92 L115.65,172.92 L133.2,172.92 L133.2,170.92 L131.14,170.92 L131.12,169.1 Z"
                id="路径" fill="#FFFFFF"></path>
            <rect id="矩形" fill="#FFFFFF" x="167" y="187.73" width="27.02" height="1.99"></rect>
            <path
                d="M182.65,174.9 L192.21,174.9 L192.21,172.9 L168.8,172.9 L168.8,174.9 L178.36,174.9 C178.415228,174.9 178.46,174.944772 178.46,175 L178.46,179.2 C178.462835,179.228207 178.453565,179.256292 178.434495,179.277269 C178.415426,179.298245 178.388349,179.310142 178.36,179.31 L168.8,179.31 L168.8,181.31 L178.36,181.31 C178.387391,181.306742 178.414764,181.316225 178.43427,181.33573 C178.453775,181.355236 178.463258,181.382609 178.46,181.41 L178.46,186.02 L182.56,186.02 L182.56,181.41 C182.56,181.354772 182.604772,181.31 182.66,181.31 L192.22,181.31 L192.22,179.31 L182.65,179.31 C182.593185,179.304814 182.549764,179.257051 182.55,179.2 L182.55,175 C182.55465,174.946817 182.596817,174.90465 182.65,174.9 L182.65,174.9 Z"
                id="路径" fill="#FFFFFF"></path>
            <path
                d="M174.34,167.66 L174.34,167.66 C174.365201,167.647497 174.394799,167.647497 174.42,167.66 L186.29,167.66 C187.393707,167.660052 188.415805,168.241394 188.98,169.19 L189.81,170.58 L194.2,170.58 L191.36,165.66 L170.42,165.66 L166.83,170.48 L172.38,170.48 L174.34,167.66 Z"
                id="路径" fill="#FFFFFF"></path>
            <path
                d="M255.22,149.31 L217.43,110.49 C217.155646,110.203615 216.776592,110.041163 216.38,110.04 L213.7,110.04 C213.50374,110.04 213.315518,110.117964 213.176741,110.256741 C213.037964,110.395518 212.96,110.58374 212.96,110.78 L212.96,149.59 C212.96,149.78626 213.037964,149.974482 213.176741,150.113259 C213.315518,150.252036 213.50374,150.33 213.7,150.33 L222.89,150.33 C223.08626,150.33 223.274482,150.252036 223.413259,150.113259 C223.552036,149.974482 223.63,149.78626 223.63,149.59 L223.63,131.31 C223.628541,131.0083 223.810387,130.735923 224.089593,130.621602 C224.368799,130.507282 224.689451,130.573911 224.9,130.79 L243.39,149.79 C243.667432,150.077914 244.050172,150.240398 244.45,150.24 L254.8,150.24 C255.009173,150.218614 255.191157,150.087524 255.277698,149.895896 C255.36424,149.704268 255.342259,149.481065 255.22,149.31 Z"
                id="路径" fill="#FFFFFF"></path>
            <path
                d="M254.35,140.15 C254.518639,140.311367 254.769681,140.351215 254.98,140.25 C255.191626,140.158587 255.329026,139.950523 255.33,139.72 L255.33,110.77 C255.33,110.361309 254.998691,110.03 254.59,110.03 L245.4,110.03 C244.99522,110.03547 244.67,110.365183 244.67,110.77 L244.67,129.59 C244.671647,129.963923 244.818681,130.322542 245.08,130.59 L254.35,140.15 Z"
                id="路径" fill="#FFFFFF"></path>
            <path
                d="M176.65,110.03 L159.42,110.03 C156.448968,110.037503 153.514891,110.689141 150.82,111.94 C147.52,113.44 139.17,119.33 139.17,130.28 C139.17,143.8 150.88,150.280003 158.61,150.280003 L171.15,150.280003 C171.378164,150.28078 171.585588,150.147716 171.68,149.94 C171.771266,149.733159 171.736311,149.492354 171.59,149.32 L165.43,143.47 C165.294587,143.308333 165.100157,143.207517 164.89,143.19 C162.98,143.24 159.44,143.24 156.89,141.97 C152.458883,139.780166 149.667,135.252579 149.7,130.31 C149.682313,124.638136 153.314032,119.598117 158.7,117.82 C160.62,117.21 161.46,117.07 165.93,117.14 L176.65,117.14 C177.058691,117.14 177.39,116.808691 177.39,116.4 L177.39,110.8 C177.398172,110.598595 177.32383,110.402573 177.184158,110.257238 C177.044485,110.111903 176.85157,110.03 176.65,110.03 Z"
                id="路径" fill="#FFFFFF"></path>
            <path
                d="M72.56,143.61 C72.2902709,143.352158 71.9331001,143.205718 71.56,143.2 L55.03,143.2 L55.03,110.77 C55.03,110.361309 54.6986907,110.03 54.29,110.03 L45.1,110.03 C44.6913093,110.03 44.36,110.361309 44.36,110.77 L44.36,149.56 C44.3654705,149.96478 44.6951829,150.29 45.1,150.29 L78.03,150.29 C78.2642126,150.284401 78.4729228,150.140755 78.5617975,149.923987 C78.6506722,149.707219 78.6028714,149.458404 78.44,149.29 L72.56,143.61 Z"
                id="路径" fill="#FFFFFF"></path>
            <rect id="矩形" fill="#FFFFFF" x="191.8" y="110.03" width="10.67" height="40.29" rx="0.74"></rect>
            <path
                d="M127.95,110.03 L118.76,110.03 C118.56374,110.03 118.375518,110.107964 118.236741,110.246741 C118.097964,110.385518 118.02,110.57374 118.02,110.77 L118.02,129 C118.021459,129.3017 117.839613,129.574077 117.560407,129.688398 C117.281201,129.802718 116.960549,129.736089 116.75,129.52 L98.26,110.52 C97.9825683,110.232086 97.5998281,110.069602 97.2,110.07 L86.85,110.07 C86.6139763,110.0717 86.4016782,110.213902 86.3102798,110.431518 C86.2188814,110.649133 86.2659732,110.900279 86.43,111.07 L124.22,149.89 C124.494354,150.176385 124.873408,150.338837 125.27,150.34 L127.95,150.34 C128.35478,150.33453 128.68,150.004817 128.68,149.6 L128.68,110.77 C128.68,110.365183 128.35478,110.03547 127.95,110.03 Z"
                id="路径" fill="#FFFFFF"></path>
            <path
                d="M87.3,120.2 C87.1313606,120.038633 86.8803192,119.998785 86.67,120.1 C86.4583741,120.191413 86.3209735,120.399477 86.32,120.63 L86.32,149.63 C86.32,150.038691 86.6513093,150.37 87.06,150.37 L96.25,150.37 C96.6547801,150.36453 96.98,150.034817 96.98,149.63 L96.98,130.77 C96.9704577,130.397694 96.8245608,130.041848 96.57,129.77 L87.3,120.2 Z"
                id="路径" fill="#FFFFFF"></path>
            <path
                d="M175.98,133.089991 C173.814312,133.085956 171.85981,134.387957 171.029168,136.38802 C170.198526,138.388083 170.655613,140.691637 172.186988,142.223012 C173.718363,143.754387 176.021917,144.211474 178.02198,143.380832 C180.022043,142.55019 181.324044,140.595688 181.320009,138.43 C181.314497,135.483082 178.926918,133.095503 175.98,133.089991 L175.98,133.089991 Z"
                id="路径" fill="url(#linearGradient-1)"></path>
            <path
                d="M191.8,118.68 L191.8,138.84 L202.47,135.31 L202.47,110.77 C202.473852,110.560476 202.386228,110.359671 202.23,110.22 L191.8,118.68 Z"
                id="路径" fill="url(#linearGradient-2)"></path>
            <path
                d="M216.38,110.04 L213.7,110.04 C213.50374,110.04 213.315518,110.117964 213.176741,110.256741 C213.037964,110.395518 212.96,110.58374 212.96,110.78 L212.96,131.78 L232.01,125.45 L217.43,110.45 C217.148997,110.178285 216.770773,110.030598 216.38,110.04 L216.38,110.04 Z"
                id="路径" fill="url(#linearGradient-3)"></path>
            <path
                d="M254.65,110.03 L245.46,110.03 C245.05522,110.03547 244.73,110.365183 244.73,110.77 L244.73,121.24 L255.39,117.7 L255.39,110.77 C255.39,110.361309 255.058691,110.03 254.65,110.03 Z"
                id="路径" fill="url(#linearGradient-4)"></path>
        </g>
    </g>
</svg>